<svg width="297" height="168" viewBox="0 0 297 168" fill="none" xmlns="http://www.w3.org/2000/svg"><path d="M8.68 119.568c0 4.992 6.656 5.12 10.752 5.12 30.848 0 93.312-30.848 93.312-50.176 0-7.936-10.624-12.672-23.168-16.128-15.36-4.224-32.768-6.528-32.768-17.792 0-21.504 41.344-38.656 60.032-39.296 11.648-.384 19.456 2.432 19.328 12.288-.256 15.232-22.528 31.744-36.096 31.744-2.56 0-6.4-1.024-6.4-3.84 0-5.248 4.992-10.752 7.552-12.288-1.92 2.176-2.688 4.864-2.688 6.656 0 .768.768.768 1.536.768 5.248 0 30.208-14.336 31.872-25.984.64-4.096-2.816-5.248-7.68-5.248-1.408 0-3.072.128-4.736.256C103.144 7.44 65.512 28.56 65.512 41.744c0 7.424 12.288 10.624 25.216 14.208 14.464 3.968 29.44 8.704 29.44 22.912 0 28.032-63.744 55.424-98.688 55.424-8.448 0-20.736-2.432-20.736-12.544 0-18.944 57.856-49.536 74.368-49.152-33.92 9.216-66.432 37.504-66.432 46.976ZM180.6 25.232c-12.544 14.208-32.64 41.216-43.008 61.824 14.592-15.488 36.608-30.848 40.96-30.848 2.944 0 7.04 6.912 5.504 8.32-3.328 2.56-22.912 29.568-23.296 35.584 7.936-2.176 26.112-19.968 34.176-27.52.896-.64 1.536.384 1.152.768-9.216 9.856-24.448 25.856-34.048 31.488-1.024.64-2.944 1.536-4.352 1.92-.512.128-1.024.256-1.92 0-2.56-.896-5.504-5.376-5.504-7.68 0-7.296 13.696-27.776 20.352-33.792-7.552 3.456-18.432 11.264-27.648 19.968-1.28 1.152-6.4 6.528-6.4 6.528-3.84 4.096-6.656 7.936-7.936 11.008-1.152 2.56-.896 4.352 2.048 4.736-1.536.64-2.944.128-4.224-.64-.896-.384-3.712-3.072-4.608-5.12-.384-1.024-.128-5.12 3.712-13.568 6.784-15.488 24.192-40.576 36.224-56.576 3.456-4.736 9.984-12.544 15.488-17.152 2.048-1.536 3.84-2.304 4.864-2.304 7.168 0 12.16 7.552 9.728 6.144-2.56-1.28-6.4 1.408-11.264 6.912ZM234.528 58c-1.28-.128-2.304-.384-3.2-.384-23.168 0-49.92 43.136-42.752 46.208 7.168 2.944 25.472-17.536 34.048-30.592-.64-1.152-1.92-4.992-1.408-6.272.384-1.28 4.224-5.12 5.888-5.248 1.28-.128 2.688.896 2.944 1.28 2.432 3.968 5.504 6.912 10.624 6.528 8.576-.768 13.312-5.76 14.72-5.632-.64 1.792-5.76 6.016-12.032 8.064-2.816.896-5.504 1.152-7.552 1.152-1.92 0-3.2-.256-3.84-.512-3.456 17.024-29.952 35.456-43.52 34.688-5.888-.384-9.728-5.248-9.728-10.112 0-20.864 28.032-41.728 48.256-41.728 4.864 0 6.912 1.408 7.808 2.176.64.384.256.384-.256.384Zm12.603 10.368c3.456-4.352 8.576-10.24 11.136-12.288.768-.64 1.536-.768 1.92-.768 2.944 0 7.808 4.992 7.808 8.32 0 .384-.384-.128-1.28-.256-1.92-.256-6.4 4.992-10.496 10.24-1.664 2.048-7.168 9.984-7.168 9.984 11.136-12.16 35.072-29.568 41.472-27.392 1.664.64 6.144 5.504 6.144 7.424 0 11.52-25.088 42.24-42.624 42.24-4.992 0-10.88-3.2-10.88-7.424 0-.64.64-.896.64-.512 0 1.28 2.176 3.712 4.864 3.712 12.928 0 35.968-33.152 37.504-40.32-1.92 0-22.528 10.24-44.8 33.664-12.416 17.792-30.464 45.056-33.664 64-.64 3.2-.64 5.76 2.304 6.144-5.888 2.304-11.648-2.432-10.624-10.24 2.688-21.504 28.288-61.568 47.744-86.528Z" fill="#fff"/></svg>