<svg width="339" height="175" viewBox="0 0 339 175" fill="none" xmlns="http://www.w3.org/2000/svg">
  <circle cx="71.5" cy="71.5" r="71.5" fill="#AF0B14"/>
  <path d="M214.416 132.96c-2.208-.192-9.648 4.368-10.272 6.624-.192.816.96 1.584 1.44 2.016 7.68-4.32 13.824-5.376 14.448-5.376.096 0 .288.096.288.24.432.144-9.072 2.64-14.304 5.76.624.48 1.824 1.872 1.68 2.88-.672 3.12-7.008 5.664-10.128 5.664-1.056 0-1.584-.864-1.824-1.92.144-2.064 7.2-6.096 8.88-6.768-.528-.672-3.36-2.4-2.928-4.512.768-3.648 7.68-7.248 11.904-7.248 1.344 0 1.968 2.208 1.824 3.6-.048.672-3.072 3.552-4.368 3.552-.048 0-.144-.192-.096-.192.144 0 3.36-3.36 3.456-4.32Zm-9.6 9.936c-2.88 1.632-6.432 4.032-7.824 5.424 1.872-.528 7.824-3.6 7.824-5.424Zm20.506-19.824c3.744-4.896 5.088-6.432 6.288-7.392.72-.576 1.344-.96 1.776-.96 2.688-.144 4.608 2.64 3.696 2.112-1.536-.72-4.368 3.12-6.48 5.856 7.728-.384 17.856 0 24.72 1.44.384.096.576.192 0 .144-9.504-.816-18.288-.768-26.304.432-1.776 2.208-3.36 4.608-5.28 7.44-4.176 6.336-7.776 12.432-8.928 15.504 2.064.24 10.032-7.584 12.864-10.176.288-.24.48.144.336.288-2.352 2.688-10.704 11.424-13.584 12.48-.624.24-1.104.048-1.536-.192-.384-.192-1.44-1.2-1.728-1.92-.048-.096-.144-.192-.144-.72 0-1.44 2.16-6.144 8.064-15.264 1.296-1.968 2.688-4.08 4.464-6.432-4.56.912-7.392 3.216-6.144 3.936-.768 0-2.4-.912-2.544-2.448-.192-2.16 5.088-3.504 10.464-4.128Zm2.226 14.16c1.68-2.448 3.744-4.896 4.944-5.856.288-.192.48-.24.672-.24 1.152 0 2.976 1.872 2.976 3.072 0 .192-.144-.048-.528-.096-.72-.048-2.4 1.824-3.84 3.744-1.296 1.728-2.976 3.984-3.984 5.76 2.544-3.312 7.344-7.344 11.472-10.32 1.872-1.344 3.312-2.16 4.32-2.256.528-.048 2.496 2.016 2.16 2.4-1.056 1.104-5.04 4.608-6.624 8.352 2.304-.192 5.616-2.352 8.592-4.992.048-.048.336-.096.384 0-.864 1.152-6.624 6.528-9.936 6.528-.864 0-2.304-1.68-2.304-2.256 0-1.344 1.536-4.128 2.784-5.568-4.416 2.592-6.672 4.512-9.936 8.112-2.448 2.64-5.328 6.864-4.272 7.344-1.392.336-2.544-1.152-2.88-2.496-.096-.432.144-1.344.72-2.448 1.2-2.736 3.36-6.048 5.28-8.784ZM262.839 132c-.48-.048-.864-.144-1.2-.144-8.688 0-18.72 16.176-16.032 17.328 2.688 1.104 9.552-6.576 12.768-11.472-.24-.432-.72-1.872-.528-2.352.144-.48 1.584-1.92 2.208-1.968.48-.048 1.008.336 1.104.48.912 1.488 2.064 2.592 3.984 2.448 3.216-.288 4.992-2.16 5.52-2.112-.24.672-2.16 2.256-4.512 3.024a9.457 9.457 0 0 1-2.832.432c-.72 0-1.2-.096-1.44-.192-1.296 6.384-11.232 13.296-16.32 13.008-2.208-.144-3.648-1.968-3.648-3.792 0-7.824 10.512-15.648 18.096-15.648 1.824 0 2.592.528 2.928.816.24.144.096.144-.096.144Zm.886 6.432c.288-.768 1.2-1.152 2.112-1.344 3.312-5.568 6.72-10.464 9.792-14.544 2.448-3.264 4.512-5.616 6.048-6.864.816-.624 1.44-.864 1.824-.864 2.784 0 4.608 2.832 3.744 2.304-1.296-.624-3.12 1.2-5.952 4.464-.528.624-2.88 3.648-2.88 3.648-2.88 3.648-6.48 9.12-9.024 13.2 3.792-4.032 9.552-8.496 11.904-8.496 1.056 0 2.304 2.016 2.304 3.024 0 3.552-9.792 9.744-15.12 9.264 2.064 5.328 8.4 12.672 14.688 12.672 1.68 0 3.36-.528 4.944-1.728.144-.144.528-.096.288.144-2.016 1.92-4.272 2.736-6.576 2.736-6.192 0-12.672-5.952-15.936-11.568-1.152 2.16-3.792 5.856-1.632 6.096-.576.24-1.104.048-1.584-.24-.336-.144-1.296-1.152-1.68-1.92-.096-.384-.096-1.968 1.44-5.088.432-.96.96-1.92 1.44-2.88-.192-.768-.336-1.488-.144-2.016ZM279.517 132c-3.312.816-10.992 8.016-11.472 8.688.096.48.192.816.288.96 4.224-.576 9.744-6.768 11.184-9.648Zm4.707 11.52c-.864 1.008-1.776 2.544-1.92 3.792-.048.576.384.912 1.44.912 3.504 0 12.288-6.672 17.136-10.704.144-.096.48.144.336.288-3.6 3.36-13.152 12.528-19.536 12.528-1.488 0-3.408-1.728-3.408-3.024 0-1.152.288-2.112.672-3.168 1.152-2.736 3.6-5.76 6.624-8.304 3.984-3.312 8.256-4.8 10.32-4.8.72 0 2.928 1.104 2.928 2.448 0 2.976-9.216 9.888-14.592 10.032Zm13.056-11.04c-5.328 1.728-10.848 7.536-12.432 10.08 4.176-.48 12.144-8.256 12.432-10.08Zm15.058.48c-2.208-.192-9.648 4.368-10.272 6.624-.192.816.96 1.584 1.44 2.016 7.68-4.32 13.824-5.376 14.448-5.376.096 0 .288.096.288.24.432.144-9.072 2.64-14.304 5.76.624.48 1.824 1.872 1.68 2.88-.672 3.12-7.008 5.664-10.128 5.664-1.056 0-1.584-.864-1.824-1.92.144-2.064 7.2-6.096 8.88-6.768-.528-.672-3.36-2.4-2.928-4.512.768-3.648 7.68-7.248 11.904-7.248 1.344 0 1.968 2.208 1.824 3.6-.048.672-3.072 3.552-4.368 3.552-.048 0-.144-.192-.096-.192.144 0 3.36-3.36 3.456-4.32Zm-9.6 9.936c-2.88 1.632-6.432 4.032-7.824 5.424 1.872-.528 7.824-3.6 7.824-5.424Z" fill="#000"/>
  <path d="M114.856 58.94c-.504 9.66-14.112 20.412-23.436 20.412-1.848 0-3.78-1.932-3.612-3.612.084-1.68 4.116-4.956 5.964-5.628-1.176 1.176-2.856 3.864-2.184 3.864 3.36 0 20.916-9.324 21.252-17.052.168-4.788-5.46-5.628-9.324-5.628-14.028 0-36.624 18.228-36.792 26.208-.084 7.56 12.012 9.072 17.808 9.072.84 0-1.428 4.032-3.78 4.032-15.372 0-44.184 22.092-44.436 33.18-.084 3.36 2.1 5.628 6.888 6.132 16.632 1.848 52.668-21.756 67.62-33.936.168 0 .336.588.168.756-10.08 9.744-47.796 39.564-69.888 39.06-8.232-.168-13.524-5.544-12.684-12.012 2.016-17.052 32.508-32.592 44.436-33.684-4.2-.504-14.448-4.284-13.44-12.432 1.932-14.868 27.216-28.476 42.756-28.476 6.048 0 13.188 1.26 12.684 9.744Zm-4.6 28.812c5.208-8.148 10.584-15.456 14.952-21.168 2.52-3.276 4.872-5.964 6.972-7.644 1.26-1.008 2.352-1.68 3.108-1.68 4.704-.252 8.064 4.62 6.468 3.696-2.94-1.344-8.4 6.552-12.096 11.088-3.612 4.62-7.056 9.576-11.256 15.708-7.308 11.088-13.608 21.756-15.624 27.132 3.612.42 17.556-13.272 22.512-17.808.504-.42.84.252.588.504-4.116 4.704-18.732 19.992-23.772 21.84-1.092.42-1.932.084-2.688-.336-.672-.336-2.52-2.1-3.024-3.36-.084-.168-.252-.336-.252-1.26 0-2.52 3.864-10.668 14.112-26.712Zm15.726 19.908c-1.512 1.764-3.108 4.452-3.36 6.636-.084 1.008.672 1.596 2.52 1.596 6.132 0 21.504-11.676 29.988-18.732.252-.168.84.252.588.504-6.3 5.88-23.016 21.924-34.188 21.924-2.604 0-5.964-3.024-5.964-5.292 0-2.016.504-3.696 1.176-5.544 2.016-4.788 6.3-10.08 11.592-14.532 6.972-5.796 14.448-8.4 18.06-8.4 1.26 0 5.124 1.932 5.124 4.284 0 5.208-16.128 17.304-25.536 17.556Zm22.848-19.32c-9.324 3.024-18.984 13.188-21.756 17.64 7.308-.84 21.252-14.448 21.756-17.64Zm31.643 14.112-5.124 9.492c1.848-.672 3.696-1.344 5.544-1.932 1.344-.42 2.688-.168 1.512.252-2.688 1.092-5.376 2.268-7.98 3.36-10.752 18.732-24.612 39.816-40.74 44.1-.924.252-1.848.336-2.772.336-3.108 0-5.712-1.428-5.712-4.956 0-.924.168-2.016.588-3.276 3.36-10.668 19.908-24.276 39.228-33.516 1.848-3.192 8.904-15.876 8.904-15.876.084-.084-2.016 1.428-3.612 2.856-1.26 1.176-5.88 5.292-10.584 8.988-4.788 3.696-9.744 7.308-11.508 7.308-.168 0-.588-.084-.84-.252-1.512-.924-3.612-3.948-3.612-5.628 0-9.156 19.32-27.888 34.692-27.888 3.276 0 7.476 1.344 7.476 5.292 0 1.428-.84 2.856-1.596 3.948-.168.084-.252 0-.168-.084.336-.756.84-1.764.84-3.024 0-2.52-1.596-3.78-4.116-3.612-4.872.252-10.92 3.78-16.464 8.4-7.98 6.804-14.112 17.136-13.272 17.808.336.336 3.696-1.848 7.392-4.284 4.032-2.688 7.98-5.796 10.752-8.148 5.796-4.872 7.056-6.132 8.484-6.804 1.596-.756 5.124 3.78 4.788 4.788-.252-.252-.672-.504-2.1 2.352Zm-45.36 49.14c9.828-5.292 19.824-18.816 28.392-32.676-15.288 8.064-26.964 17.64-32.844 28.56-.924 1.68-1.344 2.856-1.344 3.696 0 1.176.756 1.596 1.848 1.596 1.176 0 2.604-.504 3.948-1.176Zm67.08-39.564c1.008-3.108 3.276-6.972 4.872-9.072-2.52 2.52-18.9 16.632-22.428 16.632-.168 0-.588-.168-.756-.252-1.512-.756-3.696-3.948-3.696-5.628 0-9.156 19.236-27.888 34.692-27.888 3.192 0 7.392 1.344 7.392 5.292 0 1.428-.756 2.856-1.596 3.948-.168.084-.336 0-.252-.084.42-.756.924-1.764.924-3.024 0-2.52-1.596-3.78-4.116-3.612-4.872.252-11.004 3.78-16.464 8.4-7.98 6.804-14.28 17.388-13.524 17.808.168.084.336.084.588 0 2.772-.924 14.532-9.408 18.9-13.104 1.512-1.344 6.972-6.636 9.072-7.812 1.68-.84 4.536 3.78 4.2 4.788-.42-.84-7.98 8.316-10.5 13.692-.504 1.176-.84 2.184-.84 2.856 5.292-1.512 17.304-13.02 22.512-17.892.42-.42.84.252.588.504-7.308 7.98-21 22.008-26.04 22.008-.42 0-.84-.168-1.428-.504-1.176-.672-2.772-2.436-2.772-3.948 0-.84.336-1.848.672-3.108ZM263.664 91.7c-2.1 1.68-15.12 19.404-15.288 23.352 5.292-1.428 17.304-12.936 22.68-17.976.504-.42.924.252.672.504-7.308 7.98-21 21.84-26.04 21.84-.84 0-1.764-.756-2.604-1.764-.924-1.092-1.512-2.352-1.512-3.276 0-4.788 9.744-18.816 14.112-22.764-6.888 3.108-19.236 13.272-25.452 19.992-1.092 1.092-2.1 2.352-3.024 3.528-2.268 2.688-2.856 4.956-1.596 5.544-2.52.588-4.536-2.1-5.208-4.536-.168-.588.252-2.856 2.352-6.72 2.016-3.948 5.208-8.904 7.98-12.768 3.024-4.284 6.72-8.736 8.904-10.416.336-.336.84-.42 1.092-.42 2.1 0 5.292 3.276 5.292 5.376 0 .336-.336-.084-1.008-.168-1.092-.084-4.2 3.444-6.72 6.72-3.948 5.208-8.316 11.424-9.576 13.776.924-1.344 2.52-3.024 4.284-4.704 9.408-9.24 24.192-20.58 27.048-20.58 2.016 0 4.704 4.536 3.612 5.46Zm21.739-19.824c6.552-8.568 8.904-11.256 11.004-12.936 1.26-1.008 2.352-1.68 3.108-1.68 4.704-.252 8.064 4.62 6.468 3.696-2.688-1.26-7.644 5.46-11.34 10.248 13.524-.672 31.248 0 43.26 2.52.672.168 1.008.336 0 .252-16.632-1.428-32.004-1.344-46.032.756-3.108 3.864-5.88 8.064-9.24 13.02-7.308 11.088-13.608 21.756-15.624 27.132 3.612.42 17.556-13.272 22.512-17.808.504-.42.84.252.588.504-4.116 4.704-18.732 19.992-23.772 21.84-1.092.42-1.932.084-2.688-.336-.672-.336-2.52-2.1-3.024-3.36-.084-.168-.252-.336-.252-1.26 0-2.52 3.78-10.752 14.112-26.712 2.268-3.444 4.704-7.14 7.812-11.256-7.98 1.596-12.936 5.628-10.752 6.888-1.344 0-4.2-1.596-4.452-4.284-.336-3.78 8.904-6.132 18.312-7.224Z" fill="#000"/>
</svg>
